<?xml version="1.0" encoding="utf-8"?>
<!-- Generator: Adobe Illustrator 14.0.0, SVG Export Plug-In . SVG Version: 6.00 Build 43363)  -->
<!DOCTYPE svg PUBLIC "-//W3C//DTD SVG 1.1//EN" "http://www.w3.org/Graphics/SVG/1.1/DTD/svg11.dtd">
<svg version="1.1" id="Layer_1" xmlns="http://www.w3.org/2000/svg" xmlns:xlink="http://www.w3.org/1999/xlink" x="0px" y="0px"
	 width="595.28px" height="841.89px" viewBox="0 0 595.28 841.89" enable-background="new 0 0 595.28 841.89" xml:space="preserve">
<circle fill="#ED1C24" cx="15.406" cy="275.597" r="6"/>
<circle fill="#ED1C24" cx="15.406" cy="287.597" r="6"/>
<circle fill="#ED1C24" cx="27.406" cy="275.597" r="6"/>
<circle fill="#ED1C24" cx="27.406" cy="287.597" r="1.8"/>
<circle fill="#ED1C24" cx="39.406" cy="275.597" r="6"/>
<circle fill="#ED1C24" cx="39.406" cy="287.597" r="6"/>
<circle fill="#ED1C24" cx="51.406" cy="275.597" r="6"/>
<circle fill="#ED1C24" cx="51.406" cy="287.597" r="6"/>
<circle fill="#ED1C24" cx="63.406" cy="275.597" r="6"/>
<circle fill="#ED1C24" cx="63.406" cy="287.597" r="1.8"/>
<circle fill="#ED1C24" cx="75.406" cy="275.597" r="6"/>
<circle fill="#ED1C24" cx="75.406" cy="287.597" r="6"/>
<circle fill="#ED1C24" cx="87.406" cy="275.597" r="6"/>
<circle fill="#ED1C24" cx="87.406" cy="287.597" r="6"/>
<circle fill="#ED1C24" cx="99.406" cy="275.597" r="6"/>
<circle fill="#ED1C24" cx="99.406" cy="287.597" r="6"/>
<circle fill="#ED1C24" cx="156.604" cy="275.597" r="6"/>
<circle fill="#ED1C24" cx="156.604" cy="287.597" r="6"/>
<circle fill="#ED1C24" cx="168.604" cy="275.597" r="6"/>
<circle fill="#ED1C24" cx="168.604" cy="287.597" r="1.8"/>
<circle fill="#ED1C24" cx="180.604" cy="275.597" r="6"/>
<circle fill="#ED1C24" cx="180.604" cy="287.597" r="6"/>
<circle fill="#ED1C24" cx="192.604" cy="275.597" r="6"/>
<circle fill="#ED1C24" cx="192.604" cy="287.597" r="6"/>
<circle fill="#ED1C24" cx="156.604" cy="371.597" r="6"/>
<circle fill="#ED1C24" cx="156.604" cy="383.597" r="6"/>
<circle fill="#ED1C24" cx="168.604" cy="371.597" r="6"/>
<circle fill="#ED1C24" cx="168.604" cy="383.597" r="6"/>
<circle fill="#ED1C24" cx="180.604" cy="371.597" r="1.8"/>
<circle fill="#ED1C24" cx="180.604" cy="383.597" r="6"/>
<circle fill="#ED1C24" cx="192.604" cy="371.597" r="6"/>
<circle fill="#ED1C24" cx="192.604" cy="383.597" r="6"/>
<circle fill="#ED1C24" cx="156.604" cy="323.597" r="6"/>
<circle fill="#ED1C24" cx="156.604" cy="335.597" r="6"/>
<circle fill="#ED1C24" cx="168.604" cy="323.597" r="6"/>
<circle fill="#ED1C24" cx="168.604" cy="335.597" r="1.8"/>
<circle fill="#ED1C24" cx="180.604" cy="323.597" r="6"/>
<circle fill="#ED1C24" cx="180.604" cy="335.597" r="6"/>
<circle fill="#ED1C24" cx="63.406" cy="299.597" r="6"/>
<circle fill="#ED1C24" cx="51.406" cy="299.597" r="6"/>
<circle fill="#ED1C24" cx="63.406" cy="311.597" r="6"/>
<circle fill="#ED1C24" cx="51.406" cy="311.597" r="6"/>
<circle fill="#ED1C24" cx="63.406" cy="323.597" r="6"/>
<circle fill="#ED1C24" cx="51.406" cy="323.597" r="6"/>
<circle fill="#ED1C24" cx="63.406" cy="335.597" r="6"/>
<circle fill="#ED1C24" cx="51.406" cy="335.597" r="1.8"/>
<circle fill="#ED1C24" cx="63.406" cy="347.597" r="6"/>
<circle fill="#ED1C24" cx="51.406" cy="347.597" r="6"/>
<circle fill="#ED1C24" cx="63.406" cy="359.597" r="6"/>
<circle fill="#ED1C24" cx="51.406" cy="359.597" r="6"/>
<circle fill="#ED1C24" cx="63.406" cy="371.597" r="1.8"/>
<circle fill="#ED1C24" cx="51.406" cy="371.597" r="6"/>
<circle fill="#ED1C24" cx="63.406" cy="383.597" r="6"/>
<circle fill="#ED1C24" cx="51.406" cy="383.597" r="6"/>
<circle fill="#ED1C24" cx="144.604" cy="275.597" r="6"/>
<circle fill="#ED1C24" cx="132.604" cy="275.597" r="6"/>
<circle fill="#ED1C24" cx="144.604" cy="287.597" r="6"/>
<circle fill="#ED1C24" cx="132.604" cy="287.597" r="1.8"/>
<circle fill="#ED1C24" cx="144.604" cy="299.597" r="6"/>
<circle fill="#ED1C24" cx="132.604" cy="299.597" r="6"/>
<circle fill="#ED1C24" cx="144.604" cy="311.597" r="6"/>
<circle fill="#ED1C24" cx="132.604" cy="311.597" r="6"/>
<circle fill="#ED1C24" cx="144.604" cy="323.597" r="6"/>
<circle fill="#ED1C24" cx="132.604" cy="323.597" r="6"/>
<circle fill="#ED1C24" cx="144.604" cy="335.597" r="6"/>
<circle fill="#ED1C24" cx="132.604" cy="335.597" r="1.8"/>
<circle fill="#ED1C24" cx="144.604" cy="347.597" r="6"/>
<circle fill="#ED1C24" cx="132.604" cy="347.597" r="6"/>
<circle fill="#ED1C24" cx="144.604" cy="359.597" r="6"/>
<circle fill="#ED1C24" cx="132.604" cy="359.597" r="6"/>
<circle fill="#ED1C24" cx="144.604" cy="371.597" r="1.8"/>
<circle fill="#ED1C24" cx="132.604" cy="371.597" r="6"/>
<circle fill="#ED1C24" cx="144.604" cy="383.597" r="6"/>
<circle fill="#ED1C24" cx="132.604" cy="383.597" r="6"/>
<circle fill="#ED1C24" cx="239.402" cy="275.597" r="6"/>
<circle fill="#ED1C24" cx="227.402" cy="275.597" r="6"/>
<circle fill="#ED1C24" cx="239.402" cy="287.597" r="1.8"/>
<circle fill="#ED1C24" cx="227.402" cy="287.597" r="6"/>
<circle fill="#ED1C24" cx="239.402" cy="299.597" r="6"/>
<circle fill="#ED1C24" cx="227.402" cy="299.597" r="6"/>
<circle fill="#ED1C24" cx="239.402" cy="311.597" r="6"/>
<circle fill="#ED1C24" cx="227.402" cy="311.597" r="6"/>
<circle fill="#ED1C24" cx="239.402" cy="323.597" r="6"/>
<circle fill="#ED1C24" cx="227.402" cy="323.597" r="6"/>
<circle fill="#ED1C24" cx="239.402" cy="335.597" r="6"/>
<circle fill="#ED1C24" cx="227.402" cy="335.597" r="6"/>
<circle fill="#ED1C24" cx="239.402" cy="347.597" r="6"/>
<circle fill="#ED1C24" cx="227.402" cy="347.597" r="6"/>
<circle fill="#ED1C24" cx="239.402" cy="359.597" r="6"/>
<circle fill="#ED1C24" cx="227.402" cy="359.597" r="1.8"/>
<circle fill="#ED1C24" cx="239.402" cy="371.597" r="6"/>
<circle fill="#ED1C24" cx="227.402" cy="371.597" r="6"/>
<circle fill="#ED1C24" cx="239.402" cy="383.597" r="6"/>
<circle fill="#ED1C24" cx="227.402" cy="383.597" r="6"/>
<circle fill="#ED1C24" cx="345.6" cy="275.597" r="6"/>
<circle fill="#ED1C24" cx="333.6" cy="275.597" r="6"/>
<circle fill="#ED1C24" cx="345.6" cy="287.597" r="6"/>
<circle fill="#ED1C24" cx="333.6" cy="287.597" r="6"/>
<circle fill="#ED1C24" cx="345.6" cy="299.597" r="6"/>
<circle fill="#ED1C24" cx="333.6" cy="299.597" r="6"/>
<circle fill="#ED1C24" cx="345.6" cy="311.597" r="6"/>
<circle fill="#ED1C24" cx="333.6" cy="311.597" r="1.8"/>
<circle fill="#ED1C24" cx="345.6" cy="323.597" r="6"/>
<circle fill="#ED1C24" cx="333.6" cy="323.597" r="6"/>
<circle fill="#ED1C24" cx="345.6" cy="335.597" r="1.8"/>
<circle fill="#ED1C24" cx="333.6" cy="335.597" r="6"/>
<circle fill="#ED1C24" cx="345.6" cy="347.597" r="6"/>
<circle fill="#ED1C24" cx="333.6" cy="347.597" r="6"/>
<circle fill="#ED1C24" cx="345.6" cy="359.597" r="1.8"/>
<circle fill="#ED1C24" cx="333.6" cy="359.597" r="6"/>
<circle fill="#ED1C24" cx="345.6" cy="371.597" r="6"/>
<circle fill="#ED1C24" cx="333.6" cy="371.597" r="6"/>
<circle fill="#ED1C24" cx="345.6" cy="383.597" r="6"/>
<circle fill="#ED1C24" cx="333.6" cy="383.597" r="6"/>
<circle fill="#ED1C24" cx="405.601" cy="275.597" r="6"/>
<circle fill="#ED1C24" cx="405.601" cy="287.597" r="6"/>
<circle fill="#ED1C24" cx="393.601" cy="287.597" r="6"/>
<circle fill="#ED1C24" cx="405.601" cy="299.597" r="6"/>
<circle fill="#ED1C24" cx="393.601" cy="299.597" r="6"/>
<circle fill="#ED1C24" cx="405.601" cy="311.597" r="6"/>
<circle fill="#ED1C24" cx="393.602" cy="311.597" r="1.8"/>
<circle fill="#ED1C24" cx="405.601" cy="323.597" r="6"/>
<circle fill="#ED1C24" cx="393.601" cy="323.597" r="6"/>
<circle fill="#ED1C24" cx="405.602" cy="335.597" r="1.8"/>
<circle fill="#ED1C24" cx="393.601" cy="335.597" r="6"/>
<circle fill="#ED1C24" cx="405.601" cy="347.597" r="6"/>
<circle fill="#ED1C24" cx="393.601" cy="347.597" r="6"/>
<circle fill="#ED1C24" cx="405.601" cy="359.597" r="6"/>
<circle fill="#ED1C24" cx="393.601" cy="359.597" r="6"/>
<circle fill="#ED1C24" cx="405.602" cy="371.597" r="1.8"/>
<circle fill="#ED1C24" cx="393.601" cy="371.597" r="6"/>
<circle fill="#ED1C24" cx="405.601" cy="383.597" r="6"/>
<circle fill="#ED1C24" cx="393.601" cy="383.597" r="6"/>
<circle fill="#ED1C24" cx="453.601" cy="287.597" r="6"/>
<circle fill="#ED1C24" cx="465.601" cy="299.597" r="6"/>
<circle fill="#ED1C24" cx="453.601" cy="299.597" r="6"/>
<circle fill="#ED1C24" cx="465.601" cy="311.597" r="6"/>
<circle fill="#ED1C24" cx="453.601" cy="311.597" r="6"/>
<circle fill="#ED1C24" cx="465.602" cy="323.597" r="1.8"/>
<circle fill="#ED1C24" cx="453.601" cy="323.597" r="6"/>
<circle fill="#ED1C24" cx="465.601" cy="335.597" r="6"/>
<circle fill="#ED1C24" cx="453.601" cy="335.597" r="6"/>
<circle fill="#ED1C24" cx="465.601" cy="347.597" r="6"/>
<circle fill="#ED1C24" cx="453.601" cy="347.597" r="6"/>
<circle fill="#ED1C24" cx="465.601" cy="359.597" r="6"/>
<circle fill="#ED1C24" cx="453.601" cy="359.597" r="6"/>
<circle fill="#ED1C24" cx="465.602" cy="371.597" r="1.8"/>
<circle fill="#ED1C24" cx="453.601" cy="371.597" r="6"/>
<circle fill="#ED1C24" cx="465.601" cy="383.597" r="6"/>
<circle fill="#ED1C24" cx="453.601" cy="383.597" r="6"/>
<circle fill="#ED1C24" cx="511.799" cy="275.597" r="6"/>
<circle fill="#ED1C24" cx="511.799" cy="287.597" r="6"/>
<circle fill="#ED1C24" cx="499.799" cy="287.597" r="6"/>
<circle fill="#ED1C24" cx="511.799" cy="299.597" r="6"/>
<circle fill="#ED1C24" cx="499.799" cy="299.597" r="1.8"/>
<circle fill="#ED1C24" cx="511.799" cy="311.597" r="6"/>
<circle fill="#ED1C24" cx="499.799" cy="311.597" r="6"/>
<circle fill="#ED1C24" cx="511.799" cy="323.597" r="6"/>
<circle fill="#ED1C24" cx="499.799" cy="323.597" r="6"/>
<circle fill="#ED1C24" cx="511.799" cy="335.597" r="6"/>
<circle fill="#ED1C24" cx="511.799" cy="359.597" r="6"/>
<circle fill="#ED1C24" cx="499.799" cy="359.597" r="6"/>
<circle fill="#ED1C24" cx="511.799" cy="371.597" r="6"/>
<circle fill="#ED1C24" cx="499.799" cy="371.597" r="6"/>
<circle fill="#ED1C24" cx="511.799" cy="383.597" r="6"/>
<circle fill="#ED1C24" cx="559.799" cy="275.597" r="6"/>
<circle fill="#ED1C24" cx="571.799" cy="287.597" r="6"/>
<circle fill="#ED1C24" cx="559.799" cy="287.597" r="6"/>
<circle fill="#ED1C24" cx="571.799" cy="299.597" r="1.8"/>
<circle fill="#ED1C24" cx="559.799" cy="299.597" r="6"/>
<circle fill="#ED1C24" cx="559.799" cy="323.597" r="6"/>
<circle fill="#ED1C24" cx="571.799" cy="335.597" r="6"/>
<circle fill="#ED1C24" cx="559.799" cy="335.597" r="6"/>
<circle fill="#ED1C24" cx="571.799" cy="347.597" r="6"/>
<circle fill="#ED1C24" cx="559.799" cy="347.597" r="6"/>
<circle fill="#ED1C24" cx="571.799" cy="359.597" r="1.8"/>
<circle fill="#ED1C24" cx="559.799" cy="359.597" r="6"/>
<circle fill="#ED1C24" cx="571.799" cy="371.597" r="6"/>
<circle fill="#ED1C24" cx="559.799" cy="371.597" r="6"/>
<circle fill="#ED1C24" cx="559.799" cy="383.597" r="6"/>
<circle fill="#ED1C24" cx="287.402" cy="299.597" r="1.8"/>
<circle fill="#ED1C24" cx="287.402" cy="311.597" r="6"/>
<circle fill="#ED1C24" cx="299.402" cy="299.597" r="6"/>
<circle fill="#ED1C24" cx="299.402" cy="311.597" r="6"/>
<circle fill="#ED1C24" cx="287.402" cy="371.597" r="6"/>
<circle fill="#ED1C24" cx="287.402" cy="383.597" r="6"/>
<circle fill="#ED1C24" cx="299.401" cy="371.597" r="1.8"/>
<circle fill="#ED1C24" cx="299.402" cy="383.597" r="6"/>
<circle fill="#ED1C24" cx="263.402" cy="347.597" r="1.8"/>
<circle fill="#ED1C24" cx="263.402" cy="359.597" r="6"/>
<circle fill="#ED1C24" cx="275.402" cy="347.597" r="6"/>
<circle fill="#ED1C24" cx="275.402" cy="359.597" r="6"/>
<circle fill="#ED1C24" cx="287.402" cy="347.597" r="6"/>
<circle fill="#ED1C24" cx="287.402" cy="359.597" r="6"/>
<circle fill="#ED1C24" cx="299.402" cy="359.597" r="6"/>
<circle fill="#ED1C24" cx="251.402" cy="275.597" r="6"/>
<circle fill="#ED1C24" cx="251.402" cy="287.597" r="6"/>
<circle fill="#ED1C24" cx="263.402" cy="275.597" r="6"/>
<circle fill="#ED1C24" cx="263.402" cy="287.597" r="6"/>
<circle fill="#ED1C24" cx="275.402" cy="275.597" r="6"/>
<circle fill="#ED1C24" cx="275.402" cy="287.597" r="6"/>
<circle fill="#ED1C24" cx="287.402" cy="287.597" r="6"/>
<circle fill="#ED1C24" cx="251.402" cy="323.597" r="1.8"/>
<circle fill="#ED1C24" cx="251.402" cy="335.597" r="6"/>
<circle fill="#ED1C24" cx="263.402" cy="323.597" r="6"/>
<circle fill="#ED1C24" cx="263.402" cy="335.597" r="6"/>
<circle fill="#ED1C24" cx="275.402" cy="323.597" r="6"/>
<circle fill="#ED1C24" cx="275.402" cy="335.597" r="6"/>
<circle fill="#ED1C24" cx="287.402" cy="323.597" r="6"/>
<circle fill="#ED1C24" cx="523.799" cy="275.597" r="6"/>
<circle fill="#ED1C24" cx="523.799" cy="287.597" r="6"/>
<circle fill="#ED1C24" cx="535.799" cy="275.597" r="1.8"/>
<circle fill="#ED1C24" cx="535.799" cy="287.597" r="6"/>
<circle fill="#ED1C24" cx="547.799" cy="275.597" r="6"/>
<circle fill="#ED1C24" cx="547.799" cy="287.597" r="6"/>
<circle fill="#ED1C24" cx="523.799" cy="323.597" r="6"/>
<circle fill="#ED1C24" cx="523.799" cy="335.597" r="6"/>
<circle fill="#ED1C24" cx="535.799" cy="323.597" r="1.8"/>
<circle fill="#ED1C24" cx="535.799" cy="335.597" r="6"/>
<circle fill="#ED1C24" cx="547.799" cy="323.597" r="6"/>
<circle fill="#ED1C24" cx="547.799" cy="335.597" r="6"/>
<circle fill="#ED1C24" cx="523.799" cy="371.597" r="6"/>
<circle fill="#ED1C24" cx="523.799" cy="383.597" r="6"/>
<circle fill="#ED1C24" cx="535.799" cy="371.597" r="6"/>
<circle fill="#ED1C24" cx="535.799" cy="383.597" r="6"/>
<circle fill="#ED1C24" cx="547.799" cy="371.597" r="6"/>
<circle fill="#ED1C24" cx="547.799" cy="383.597" r="1.8"/>
<circle fill="#ED1C24" cx="417.602" cy="275.597" r="6"/>
<circle fill="#ED1C24" cx="417.602" cy="287.597" r="6"/>
<circle fill="#ED1C24" cx="429.602" cy="275.597" r="6"/>
<circle fill="#ED1C24" cx="429.602" cy="287.597" r="6"/>
<circle fill="#ED1C24" cx="441.602" cy="275.597" r="1.8"/>
<circle fill="#ED1C24" cx="441.602" cy="287.597" r="6"/>
<circle fill="#ED1C24" cx="357.169" cy="275.597" r="6"/>
<circle fill="#ED1C24" cx="357.169" cy="287.597" r="6"/>
<circle fill="#ED1C24" cx="369.169" cy="275.597" r="6"/>
<circle fill="#ED1C24" cx="369.169" cy="287.597" r="6"/>
<circle fill="#ED1C24" cx="381.169" cy="275.597" r="1.8"/>
<circle fill="#ED1C24" cx="381.169" cy="287.597" r="6"/>
</svg>
